
<svg width="340" height="360" xmlns="http://www.w3.org/2000/svg">
  <rect width="100%" height="100%" fill="#282a36" rx="12"/>
  <text x="20" y="30" fill="#ff79c6" font-size="18" font-weight="bold">
    🔝 Top Contributed Repositories
  </text>
  
    <text x="20" y="60" fill="#f8f8f2" font-size="14">
      1. is-a-dev/register
    </text>
    <rect x="20" y="70" width="300" height="10" fill="#44475a" rx="5"/>
    <rect x="20" y="70" width="300" height="10" fill="#bd93f9" rx="5"/>
  
    <text x="20" y="120" fill="#f8f8f2" font-size="14">
      2. MikiDevAHM/MikiDevAHM
    </text>
    <rect x="20" y="130" width="300" height="10" fill="#44475a" rx="5"/>
    <rect x="20" y="130" width="0" height="10" fill="#bd93f9" rx="5"/>
  
    <text x="20" y="180" fill="#f8f8f2" font-size="14">
      3. ShindoClient/shindo-cdn
    </text>
    <rect x="20" y="190" width="300" height="10" fill="#44475a" rx="5"/>
    <rect x="20" y="190" width="0" height="10" fill="#bd93f9" rx="5"/>
  
    <text x="20" y="240" fill="#f8f8f2" font-size="14">
      4. ShindoClient/shindo-status
    </text>
    <rect x="20" y="250" width="300" height="10" fill="#44475a" rx="5"/>
    <rect x="20" y="250" width="0" height="10" fill="#bd93f9" rx="5"/>
  
    <text x="20" y="300" fill="#f8f8f2" font-size="14">
      5. ShindoClient/shindo-client
    </text>
    <rect x="20" y="310" width="300" height="10" fill="#44475a" rx="5"/>
    <rect x="20" y="310" width="0" height="10" fill="#bd93f9" rx="5"/>
  
</svg>